<svg width="34" height="28" viewBox="0 0 34 28" fill="none" xmlns="http://www.w3.org/2000/svg">
<path d="M17 5.46198L4.87412 15.4585C4.87412 15.4727 4.87057 15.4934 4.86348 15.5217C4.85654 15.5498 4.85284 15.5702 4.85284 15.5846V25.7072C4.85284 26.0727 4.98647 26.3894 5.25364 26.6562C5.52073 26.923 5.83702 27.0573 6.20258 27.0573H14.3004V18.959H19.6997V27.0576H27.7975C28.163 27.0576 28.4797 26.9236 28.7465 26.6562C29.0136 26.3897 29.1477 26.0728 29.1477 25.7072V15.5846C29.1477 15.5285 29.14 15.4861 29.1264 15.4585L17 5.46198Z" fill="#213E3B"/>
<path d="M33.7654 13.1808L29.1472 9.34264V0.738284C29.1472 0.541581 29.084 0.379816 28.9571 0.253211C28.8312 0.126753 28.6695 0.0635243 28.4723 0.0635243H24.4233C24.2264 0.0635243 24.0647 0.126753 23.938 0.253211C23.8117 0.379816 23.7485 0.541655 23.7485 0.738284V4.85059L18.6029 0.548303C18.1535 0.182743 17.6192 0 17.0005 0C16.3819 0 15.8476 0.182743 15.3978 0.548303L0.234342 13.1808C0.0937761 13.2931 0.0167347 13.4442 0.00240486 13.6341C-0.0118511 13.8238 0.0372692 13.9894 0.149914 14.1299L1.4574 15.6906C1.57005 15.817 1.71748 15.8943 1.9003 15.9226C2.06908 15.9368 2.23786 15.8875 2.40664 15.7751L17 3.60633L31.5936 15.775C31.7063 15.8731 31.8537 15.922 32.0365 15.922H32.0999C32.2824 15.8943 32.4295 15.8164 32.5428 15.6903L33.8504 14.1299C33.9628 13.9891 34.0121 13.8237 33.9975 13.6338C33.983 13.4445 33.9057 13.2933 33.7654 13.1808Z" fill="#213E3B"/>
</svg>
