<svg width="22" height="27" viewBox="0 0 22 27" fill="none" xmlns="http://www.w3.org/2000/svg">
<path d="M3.8811 6.5751V23.1214H17.5413V6.5751H3.8811ZM15.2122 16.6669H6.21013V15.1154H15.2122V16.6669ZM15.2122 13.5616H6.21013V12.0101H15.2122V13.5616ZM15.2122 10.4562H6.21013V8.90475H15.2122V10.4562Z" fill="#213E3B"/>
<path d="M16.7643 2.694V5.02365H19.0927V23.1214V24.6728H17.5413H3.8811H2.32965V23.1214V5.02365H4.65806V2.694H0V27H21.4224V2.694H16.7643Z" fill="#213E3B"/>
<path d="M13.5553 2.694C13.214 1.44369 12.0682 0.521973 10.7112 0.521973C9.35413 0.521973 8.20833 1.44369 7.86696 2.694H6.2095V5.02365H15.2129V2.694H13.5553Z" fill="#213E3B"/>
</svg>
